Simulation
nRows=42
nColumns=15
endheader
time  TH_x TH_y TH_z SC_y  SC_z  SC_x  AC_y  AC_z  AC_x  GH_y  GH_z  GH_yy  EL_x  PS_y
2.6910411985018725  0.000000  0.000000  0.000000  -29.11501737689181  2.02502029180632  -4.984891206322715  52.00048131184774  9.762197758859218  0.647373745931247  47.687586767714066  7.073418634409246  -8.778937948802543  15.884521927157541  120.000000
2.7312059925093632  0.000000  0.000000  0.000000  -29.25585468423711  2.0422276704020637  -4.9314403814071275  52.19062400920485  10.215225051773322  0.7952952668835055  65.61674279122973  5.999586178075342  -23.850442512989947  16.63367826071611  120.000000
2.771370786516854  0.000000  0.000000  0.000000  -29.480973815653506  2.0784972097283183  -4.859957155663591  52.31429578168095  10.640541775411215  0.8899783504053987  86.9211043284508  5.598126651344421  -42.590100771431246  17.298185722185696  120.000000
2.8115355805243447  0.000000  0.000000  0.000000  -29.744933037257674  2.117012093731245  -4.792678483533667  52.36999675962615  11.02737757497802  0.9326039298091281  107.54291482886491  5.856173228904286  -60.94698965684267  17.85197267948713  120.000000
2.851700374531835  0.000000  0.000000  0.000000  -30.008525789268052  2.1460845331203684  -4.741151272602469  52.36827351735788  11.375243791957367  0.9315663280667643  124.29526689102818  6.583163091503667  -75.72490133180077  18.28064185168913  120.000000
2.8918651685393257  0.000000  0.000000  0.000000  -30.246476518007793  2.159398851175261  -4.707716750968415  52.32441374492791  11.68909961010249  0.8994670036653196  136.88260424206652  7.556081408065955  -86.61013986505348  18.58083886754318  120.000000
2.9320299625468165  0.000000  0.000000  0.000000  -30.448341416870363  2.157096744443878  -4.689815511129235  52.249483092247935  11.976673412800162  0.8477316462266768  146.29642763853292  8.614482125953243  -94.57503345964112  18.757804230549684  120.000000
2.972194756554307  0.000000  0.000000  0.000000  -30.614674079828525  2.1452114037190584  -4.684164967870794  52.14787712765981  12.246749568133334  0.7840086961917899  153.51849506630214  9.6623535743596  -100.58179525500323  18.823768389087892  120.000000
3.012359550561798  0.000000  0.000000  0.000000  -30.750777363787048  2.1305759253185297  -4.689361028350842  52.02169428226503  12.505394759579342  0.7147304929692341  159.22340431007956  10.64779978208544  -105.28484603870626  18.797335506540286  120.000000
3.0525243445692882  0.000000  0.000000  0.000000  -30.861273883683026  2.1169752144644107  -4.706172858534027  51.874010098198156  12.754918677487517  0.6461402680356007  163.83186526431226  11.544533477280877  -109.0838232575651  18.70210450056343  120.000000
3.092689138576779  0.000000  0.000000  0.000000  -30.9492915185772  2.1061593034527117  -4.736797126866997  51.70948548155158  12.994650103351116  0.5829038054876555  167.60366375623792  12.339690597375014  -112.2171999163783  18.562961409688903  120.000000
3.1328539325842697  0.000000  0.000000  0.000000  -31.016522359453475  2.0988622956661214  -4.784198004736382  51.53323250283178  13.222055722442766  0.5286212662756193  170.7080126794277  13.026775488699396  -114.8329235423125  18.40235092892798  120.000000
3.1730187265917604  0.000000  0.000000  0.000000  -31.06382350177671  2.0950104523908513  -4.851218806117566  51.35011874273381  13.433931682055663  0.4860347811429093  173.25749221078206  13.602524400946239  -117.02284704720101  18.237856095042947  120.000000
3.2131835205992507  0.000000  0.000000  0.000000  -31.091481178363438  2.094154423729919  -4.939364096673704  51.16478463109516  13.626628086895478  0.457359066152826  175.32833861410563  14.065340555523944  -118.84341409313078  18.080963159167993  120.000000
3.2533483146067415  0.000000  0.000000  0.000000  -31.09943579232987  2.0957397230370143  -5.04914323513124  50.981867359504314  13.796549628201975  0.4438904911892189  176.97063135829293  14.414543899287276  -120.32630259464209  17.937262030381696  120.000000
3.293513108614232  0.000000  0.000000  0.000000  -31.087734541673484  2.0992329232529405  -5.1801997377673  50.80561090608058  13.940260542258697  0.4465429582247001  178.21922713306338  14.649927503798963  -121.48941112182948  17.807715853876747  120.000000
3.333677902621723  0.000000  0.000000  0.000000  -31.05664214168555  2.1041928645205363  -5.3315501305283455  50.63993478716518  14.054710108969298  0.465488803803093  179.09618290160915  14.771549091935897  -122.33975265175526  17.69040441268537  120.000000
3.3738426966292137  0.000000  0.000000  0.000000  -31.006974157863443  2.110362170870921  -5.501643382146003  50.48809913850751  14.137407468424744  0.5007289282633611  179.61494655879326  14.779520358957457  -122.87769106719125  17.582410432354205  120.000000
3.414007490636704  0.000000  0.000000  0.000000  -30.94002820220151  2.11767560165753  -5.688538650419485  50.35279902316192  14.186686886658148  0.5518399775132218  179.7795908216441  14.67395279846338  -123.09661860961639  17.481138143486298  120.000000
3.4541722846441947  0.000000  0.000000  0.000000  -30.857760530980972  2.1263221134391452  -5.890025792630865  50.23586626238769  14.201862423683027  0.6184735985688841  179.5861482618158  14.454852295419707  -122.98422912111674  17.385126029513028  120.000000
3.4943370786516854  0.000000  0.000000  0.000000  -30.762555127808145  2.1367042385093504  -6.103728989000015  50.13842481462439  14.183379130967186  0.7000924520077456  179.02035988668723  14.12223952214918  -122.52056370039502  17.293911355147035  120.000000
3.534501872659176  0.000000  0.000000  0.000000  -30.657143860984313  2.1495603020046974  -6.327153449269883  50.06088317501538  14.133032144540303  0.7962446875002224  178.05503181790243  13.676161660349674  -121.67526970534502  17.207472562662726  120.000000
3.574666666666667  0.000000  0.000000  0.000000  -30.54417522401832  2.1659392884928717  -6.557737511078976  50.0030693181445  14.05459440076095  0.9068324257115239  176.64298997745172  13.116864168082273  -120.40079335137415  17.125150320203254  120.000000
3.614831460674157  0.000000  0.000000  0.000000  -30.42597140044773  2.186904847819624  -6.792270560255605  49.964042215104016  13.95360888296911  1.0321502567070788  174.70995264954254  12.445200756436133  -118.62493970726597  17.044582063233516  120.000000
3.654996254681648  0.000000  0.000000  0.000000  -30.30452817882846  2.2134014317868234  -7.027620193220323  49.94211773989361  13.836543854949792  1.1724716394803074  172.14559975385112  11.664169097863672  -116.24183255236741  16.960756813316923  120.000000
3.6951610486891386  0.000000  0.000000  0.000000  -30.18130296669197  2.2451421346142197  -7.2625083042497485  49.9351680531702  13.708956647475643  1.327323563836476  168.79063640967166  10.78152632738144  -113.09811838378445  16.86605570027157  120.000000
3.7353258426966294  0.000000  0.000000  0.000000  -30.056414683618097  2.2795718831998766  -7.499210214659184  49.941896405696156  13.573368026201003  1.495495401396904  164.40775861174313  9.813771671058987  -108.96368202398193  16.75131498311576  120.000000
3.7754906367041197  0.000000  0.000000  0.000000  -29.927189342679487  2.311181146116419  -7.743614628058655  49.96297505191468  13.428497910137613  1.6752337360585634  158.63348648700338  8.790365179079185  -103.48355864280452  16.606991669916475  120.000000
3.8156554307116104  0.000000  0.000000  0.000000  -29.787713480756395  2.33108919075723  -8.003991190752037  50.000397239495356  13.270311760926441  1.8648853901880347  150.92196732178397  7.75927568537669  -96.121842883481  16.42424628508047  120.000000
3.855820224719101  0.000000  0.000000  0.000000  -29.629810659892932  2.3290328753921448  -8.290105402719158  50.05675826616298  13.093048790167286  2.0637333772545867  140.50807415875673  6.797261522522004  -86.12481475781664  16.195669155356427  120.000000
3.895985018726592  0.000000  0.000000  0.000000  -29.444581034825777  2.2951672256916824  -8.611634406565958  50.134227450206645  12.891170007119564  2.2712167365300973  126.56490558021612  6.023082893454639  -72.67840562778602  15.916065967228745  120.000000
3.9361498127340826  0.000000  0.000000  0.000000  -29.22500058664202  2.2222602562490086  -8.976143382585615  50.23330753540738  12.661991638606702  2.4869430414830913  108.94873328376688  5.599152035188757  -55.65336436984142  15.583090711309303  120.000000
3.976314606741573  0.000000  0.000000  0.000000  -28.970192889828255  2.1081084744382435  -9.386774830701468  50.35295791041456  12.407568027277513  2.7119172889900116  89.42464258186745  5.682647736665534  -36.830253874011674  15.19809521733816  120.000000
4.016479400749064  0.000000  0.000000  0.000000  -28.68887675367379  1.9554688598217311  -9.839926287276592  50.4919380049014  12.136805311100074  2.948874457456156  71.24776080961348  6.3279946700289065  -19.479030399400173  14.767329912305378  120.000000
4.056644194756554  0.000000  0.000000  0.000000  -28.39812658531898  1.7725807758026888  -10.324332554262877  50.650066605664676  11.86616236326615  3.2020063740003253  56.554661757333974  7.467014997960839  -5.748548945124695  14.302244451234108  120.000000
4.096808988764045  0.000000  0.000000  0.000000  -28.119237628762583  1.5736527622244225  -10.822412556081117  50.82873929405912  11.618583256428261  3.4752587006273696  45.47584225070373  8.993398951819565  4.2220359766977476  13.819442936091129  120.000000
4.136973782771536  0.000000  0.000000  0.000000  -27.8748831256918  1.3785815548959748  -11.312178215086496  51.02962920666771  11.420655463852993  3.7707150979261232  37.26168830922404  10.824302080834773  11.178001276544567  13.339158949117888  120.000000
4.177138576779027  0.000000  0.000000  0.000000  -27.687608148660967  1.2115692730587748  -11.769376664695672  51.25305551668994  11.299496337253323  4.0884265837754965  31.13276538043469  12.907494957208526  15.898131363613201  12.882870930520246  120.000000
4.217303370786517  0.000000  0.000000  0.000000  -27.575918542547882  1.0985406670894482  -12.169657136198392  51.497599995632704  11.279929878318365  4.427002792735127  26.503299233897177  15.208606213107403  18.971131436082224  12.470927596168647  120.000000
4.257468164794007  0.000000  0.000000  0.000000  -27.54915652794698  1.0622574510019087  -12.490693750726598  51.759846103464845  11.381186310219162  4.783717498372934  22.963723176263695  17.697367298824528  20.811831987737833  12.119170735938042  120.000000
4.297632958801498  0.000000  0.000000  0.000000  -27.605458847884744  1.11761498553245  -12.712987675862989  52.03308919195339  11.614871904416578  5.154696804527467  20.221726732544184  20.33795645076018  21.719109055386223  11.835645659237782  120.000000
4.337797752808989  0.000000  0.000000  0.000000  -27.73134168612072  1.2724657653151177  -12.82015544473062  52.309857539114816  11.984785512273925  5.533847478765082  18.06569817115257  23.088619701921463  21.9121090799273  11.6189894678789  120.000000
